<svg width="292" height="210" viewBox="0 0 292 210" fill="none" xmlns="http://www.w3.org/2000/svg">
<g clip-path="url(#clip0)">
<path d="M57.2239 35.2637C62.8531 35.2637 67.4165 30.6955 67.4165 25.0604C67.4165 19.4252 62.8531 14.8571 57.2239 14.8571C51.5946 14.8571 47.0312 19.4252 47.0312 25.0604C47.0312 30.6955 51.5946 35.2637 57.2239 35.2637Z" fill="#2F2E41"/>
<path d="M26.1797 147.9L32.4418 126.16L34.5736 126.827C34.5736 126.827 32.0421 143.099 28.045 147.233L26.1797 147.9Z" fill="#2F2E41"/>
<path d="M50.0291 31.1957C50.0291 31.1957 50.8285 39.7318 48.9632 42.1326C47.0978 44.5333 50.1623 49.2015 50.1623 49.2015L55.7582 55.8703L64.0189 52.1358L65.2181 45.2002L64.4187 40.3987C64.4187 40.3987 61.6207 37.5978 62.8198 32.5294C64.0189 27.4611 50.0291 31.1957 50.0291 31.1957Z" fill="#FFB9B9"/>
<path opacity="0.1" d="M50.0291 31.1957C50.0291 31.1957 50.8285 39.7318 48.9632 42.1326C47.0978 44.5333 50.1623 49.2015 50.1623 49.2015L55.7582 55.8703L64.0189 52.1358L65.2181 45.2002L64.4187 40.3987C64.4187 40.3987 61.6207 37.5978 62.8198 32.5294C64.0189 27.4611 50.0291 31.1957 50.0291 31.1957Z" fill="black"/>
<path d="M54.8257 190.848V196.316L62.1536 197.783L61.4874 188.714L54.8257 190.848Z" fill="#FFB9B9"/>
<path d="M76.8098 188.713L75.2107 196.316L78.4086 198.583L84.0046 194.449L83.3384 187.913L76.8098 188.713Z" fill="#FFB9B9"/>
<path d="M62.8199 197.116C62.8199 197.116 60.0219 192.382 54.8257 195.349C54.8257 195.349 53.8931 200.584 52.9604 200.984C52.0277 201.384 46.8315 208.987 52.9604 209.653C59.0893 210.32 62.1537 208.32 62.1537 208.32C62.1537 208.32 60.9546 209.353 62.8199 208.819C64.6852 208.285 63.8858 205.351 63.8858 205.351L62.8199 197.116Z" fill="#2F2E41"/>
<path d="M81.0733 193.915C81.0733 193.915 76.9429 196.849 76.2767 195.516C75.6106 194.182 74.5447 194.315 74.5447 194.315C74.5447 194.315 70.814 208.393 73.2123 209.06C74.7566 209.441 76.3787 209.357 77.8756 208.819C77.8756 208.819 81.0733 206.577 81.0733 208.311C81.0733 210.045 90.0002 209.92 93.7308 209.787C97.4614 209.654 95.4629 206.853 95.4629 206.853L90.5331 202.051L84.9371 193.915C84.9371 193.915 82.4056 191.648 81.0733 193.915Z" fill="#2F2E41"/>
<path d="M41.7683 104.686L47.3643 158.437C47.3643 158.437 50.4287 191.247 50.9616 191.781C51.4946 192.314 54.9588 194.048 62.5533 191.781L60.8212 148.834L64.0189 122.158L71.3469 140.564C71.3469 140.564 73.079 190.047 74.2781 190.047C75.4772 190.047 82.8053 192.448 84.5373 189.514C86.2694 186.579 86.003 154.969 86.003 154.969C86.003 154.969 85.2035 105.086 79.3411 103.486C73.4787 101.885 41.7683 104.686 41.7683 104.686Z" fill="#2F2E41"/>
<path d="M57.2239 36.1306C62.3012 36.1306 66.4172 32.0103 66.4172 26.9276C66.4172 21.8449 62.3012 17.7246 57.2239 17.7246C52.1465 17.7246 48.0305 21.8449 48.0305 26.9276C48.0305 32.0103 52.1465 36.1306 57.2239 36.1306Z" fill="#FFB9B9"/>
<path d="M57.7567 52.5359C57.7567 52.5359 56.824 46.8007 56.824 45.7337C56.824 44.6667 52.6937 43.9998 52.6937 43.9998C52.6937 43.9998 49.496 40.3986 48.8298 40.9321C48.1636 41.4656 38.0376 48.2678 36.4388 49.2014C34.84 50.1351 33.1079 54.1364 33.2411 54.4031C33.3744 54.6699 41.635 72.0088 41.635 72.0088C41.635 72.0088 45.2324 82.679 42.7009 88.2808C40.1694 93.8826 36.9718 104.953 41.635 107.22C46.2983 109.488 68.9486 114.423 73.079 110.155C77.2093 105.886 80.1405 104.686 81.2064 104.686C82.2723 104.686 76.8096 86.1468 78.0087 84.4129C79.2079 82.679 77.4758 71.8755 77.4758 71.8755L83.6047 54.6699C83.6047 54.6699 83.0717 45.0668 70.9472 42.9328L63.6937 39.4122L57.7567 52.5359Z" fill="#575A89"/>
<path d="M32.8416 107.087C32.8416 107.087 32.1754 113.489 32.1754 115.356C32.1754 117.224 28.9777 128.16 33.641 129.494C38.3043 130.828 37.9046 114.956 37.9046 114.956V106.82L32.8416 107.087Z" fill="#FFB9B9"/>
<path d="M88.1349 101.085C88.1349 101.085 88.9343 107.22 88.5346 108.554C88.1349 109.888 92.3985 121.492 86.6693 122.158C80.9401 122.825 82.4057 108.287 82.4057 108.287V101.085L88.1349 101.085Z" fill="#FFB9B9"/>
<path d="M31.6423 145.766L35.5062 125.226H36.7053C37.5438 126.308 38.0937 127.586 38.3034 128.939C38.5132 130.292 38.3759 131.676 37.9045 132.962C36.3056 137.497 34.9733 145.766 34.9733 145.766H31.6423Z" fill="#2F2E41"/>
<path d="M35.2397 52.8026L33.2411 54.4031C33.2411 54.4031 30.5764 96.8169 31.2426 100.018C31.9088 103.219 28.8443 107.754 31.5091 108.154C34.1738 108.554 37.3715 110.288 38.8371 109.221C40.3027 108.154 40.5692 104.286 41.1021 103.352C41.6351 102.419 42.5677 91.3484 42.5677 91.3484C42.5677 91.3484 45.3657 80.2782 43.6336 72.0088C41.9015 63.7395 40.3027 55.3368 40.3027 55.3368L35.2397 52.8026Z" fill="#575A89"/>
<path d="M77.4759 49.4683L83.6048 54.6699L88.2681 81.8788C88.2681 81.8788 91.1993 103.086 88.9343 103.352C86.6692 103.619 83.2051 102.952 81.7395 103.352C80.2739 103.753 79.0747 102.686 79.0747 102.686C79.0747 102.686 77.4759 94.1494 77.4759 94.016C77.4759 93.8827 76.41 84.1462 76.41 84.1462L75.0776 73.2093L77.0762 61.2054L77.4759 49.4683Z" fill="#575A89"/>
<path d="M48.5634 175.376C48.5634 175.376 47.6974 177.866 46.5036 181.256C45.9493 182.833 45.3244 184.605 44.6809 186.413C44.2665 187.581 43.8455 188.764 43.4311 189.919C42.7703 191.766 42.1281 193.54 41.5671 195.063C40.8263 197.073 40.2254 198.648 39.903 199.383C38.4374 202.718 11.6568 197.383 9.52499 196.049C7.3932 194.715 6.86026 190.18 6.59378 183.778C6.59245 183.745 6.59111 183.712 6.59111 183.678C6.55647 182.386 6.88556 180.461 7.43585 178.203C7.71031 177.075 8.04073 175.864 8.40847 174.606C8.90145 172.919 9.46105 171.15 10.0459 169.39C12.5588 161.827 15.5207 154.436 15.5207 154.436C15.5207 154.436 20.7169 150.834 22.5822 148.434C24.4475 146.033 34.7068 144.166 34.7068 144.166C37.638 144.299 44.2998 155.636 46.9646 159.104C49.6293 162.571 48.5634 175.376 48.5634 175.376Z" fill="#3F3D56"/>
<path d="M33.6408 155.102C34.303 155.102 34.8399 154.565 34.8399 153.902C34.8399 153.239 34.303 152.702 33.6408 152.702C32.9785 152.702 32.4417 153.239 32.4417 153.902C32.4417 154.565 32.9785 155.102 33.6408 155.102Z" fill="#2F2E41"/>
<path d="M35.5063 155.903C35.8742 155.903 36.1725 155.604 36.1725 155.236C36.1725 154.868 35.8742 154.569 35.5063 154.569C35.1383 154.569 34.8401 154.868 34.8401 155.236C34.8401 155.604 35.1383 155.903 35.5063 155.903Z" fill="#2F2E41"/>
<path d="M46.5036 181.256C45.9493 182.833 45.3244 184.605 44.6809 186.413L8.40845 174.606C8.90143 172.919 9.46103 171.15 10.0459 169.39L46.5036 181.256Z" fill="#F2F2F2"/>
<path d="M43.4311 189.919C42.7703 191.766 42.1281 193.54 41.5671 195.063L6.59111 183.678C6.55647 182.386 6.88556 180.461 7.43585 178.203L43.4311 189.919Z" fill="#F2F2F2"/>
<path d="M33.6409 154.169C33.6409 154.169 36.3056 165.906 34.7068 176.309C33.1079 186.713 38.7039 196.449 38.7039 196.449" stroke="#2F2E41" stroke-width="3" stroke-miterlimit="10"/>
<path d="M35.5063 155.102C35.5063 155.102 30.3101 174.042 30.1768 176.709C30.0436 179.377 27.9118 198.45 25.2471 200.45" stroke="#2F2E41" stroke-width="3" stroke-miterlimit="10"/>
<path d="M50.1659 21.3117C50.1659 21.3117 48.0849 15.8955 51.1023 14.1248L51.9347 16.5204C51.9347 16.5204 59.5303 11.9375 61.5072 12.9791L59.6343 15.4789C59.6343 15.4789 68.4785 15.4789 69.1028 18.9161L65.9813 19.0203C65.9813 19.0203 69.3109 21.2076 69.415 24.7489L62.7558 25.1656L65.9813 27.0404C65.9813 27.0404 53.9117 28.7069 50.9983 23.9157L50.1659 21.3117Z" fill="#2F2E41"/>
<path d="M48.3635 21.5259C48.3635 21.5259 50.7618 26.3275 53.9595 25.1271C57.1572 23.9267 53.9595 19.5253 53.9595 19.5253L51.8277 18.4583L48.3635 21.5259Z" fill="#2F2E41"/>
<path d="M255.171 97.2753L211.683 42.875C209.709 44.6827 207.276 45.9124 204.65 46.4299C196.463 48.044 188.468 42.4473 186.792 33.9294C186.215 31.1124 186.416 28.191 187.376 25.4805C188.336 22.7699 190.016 20.3732 192.237 18.549L177.409 0L92.9319 72.2744L170.694 169.55L255.171 97.2753Z" fill="white"/>
<path d="M201.136 43.8454C207.907 43.8454 213.396 38.3507 213.396 31.5726C213.396 24.7945 207.907 19.2998 201.136 19.2998C194.365 19.2998 188.876 24.7945 188.876 31.5726C188.876 38.3507 194.365 43.8454 201.136 43.8454Z" fill="white"/>
<path d="M124.424 86.258L120.673 90.6038L133.311 101.535L137.062 97.1895L124.424 86.258Z" fill="#6C63FF"/>
<path d="M205.665 163.976L201.914 168.322L213.116 178.012L216.867 173.666L205.665 163.976Z" fill="#6C63FF"/>
<path d="M225.905 131.607V131.944C225.898 132.79 225.874 133.632 225.833 134.471C225.104 148.822 218.919 162.35 208.547 172.283C198.175 182.216 184.4 187.802 170.047 187.896C155.693 187.99 141.846 182.585 131.345 172.788C120.844 162.992 114.484 149.546 113.567 135.206C113.49 134.015 113.452 132.816 113.452 131.607C113.432 119.949 117.046 108.576 123.791 99.0724C124.33 98.3066 124.891 97.5548 125.474 96.8171C125.876 96.3041 126.289 95.8025 126.706 95.3047C136.197 84.0485 149.718 76.9648 164.367 75.5732C179.016 74.1817 193.626 78.5931 205.063 87.8612C205.74 88.4088 206.406 88.9754 207.056 89.5536C207.576 90.0169 208.088 90.4905 208.59 90.9742C218.483 100.447 224.573 113.217 225.71 126.874C225.84 128.437 225.905 130.014 225.905 131.607Z" fill="#3F3D56"/>
<path d="M169.679 194.976C134.774 194.976 106.376 166.549 106.376 131.607C106.356 115.62 112.392 100.22 123.267 88.5132L124.669 89.8156C114.122 101.169 108.269 116.103 108.289 131.607C108.289 165.493 135.828 193.062 169.679 193.062C177.904 193.089 186.049 191.449 193.624 188.24C201.198 185.031 208.045 180.319 213.751 174.389L215.124 175.722C209.24 181.837 202.18 186.695 194.37 190.004C186.559 193.313 178.16 195.005 169.679 194.976Z" fill="#6C63FF"/>
<path d="M178.859 193.636H162.794V209.717H178.859V193.636Z" fill="#6C63FF"/>
<path d="M125.474 96.8172C125.502 96.8288 125.527 96.8443 125.551 96.8632C125.853 97.112 125.474 97.5907 125.52 97.985C125.573 98.4905 126.247 98.6015 126.755 98.6513C127.264 98.7049 127.907 99.1146 127.666 99.5664C126.388 100.007 125.095 99.5741 123.791 99.0725C117.046 108.576 113.432 119.949 113.452 131.607C113.452 132.817 113.49 134.017 113.567 135.206C113.674 135.284 113.791 135.347 113.915 135.394C114.298 135.539 114.741 135.513 115.093 135.719C115.372 135.884 115.56 136.175 115.839 136.328C116.638 136.765 117.748 135.926 118.494 136.447C118.686 136.623 118.869 136.809 119.04 137.006C119.729 137.603 120.861 137.201 121.657 137.649C122.169 137.936 122.433 138.511 122.709 139.031C123.393 140.333 124.502 141.612 125.967 141.715C126.429 141.694 126.892 141.71 127.352 141.761C127.803 141.865 128.247 142.259 128.174 142.715C128.048 143.5 128.435 144.357 128.331 145.142C128.144 146.578 126.113 147.206 125.941 148.642C125.94 148.958 125.922 149.274 125.887 149.588C125.795 149.963 125.512 150.269 125.413 150.645C125.222 151.353 125.73 152.061 126.285 152.536C126.843 153.015 127.509 153.428 127.815 154.094C128.136 154.803 127.979 155.626 128.083 156.396C128.312 158.077 129.762 159.321 131.253 160.125C131.732 160.325 132.156 160.635 132.493 161.029C132.875 161.584 132.837 162.315 132.967 162.978C133.281 164.597 134.642 165.934 134.681 167.584C134.707 168.759 134.057 169.824 133.667 170.93C133.266 172.09 133.146 173.329 133.319 174.545C135.5 176.396 137.818 178.08 140.254 179.58C140.386 179.384 140.483 179.166 140.54 178.937C140.587 178.683 140.555 178.421 140.449 178.186C140.343 177.95 140.168 177.753 139.948 177.619C140.359 177.464 140.733 177.224 141.045 176.915C141.199 176.757 141.3 176.555 141.336 176.337C141.372 176.12 141.34 175.896 141.244 175.697C141.917 175.782 142.717 175.824 143.161 175.307C143.516 174.893 143.493 174.273 143.352 173.748C143.158 173.238 143.029 172.706 142.969 172.163C144.529 172.239 146.092 172.187 147.643 172.006C147.419 171.249 146.909 170.609 146.22 170.222C146.924 170.103 147.563 169.261 147.785 168.583C147.977 167.892 147.987 167.162 147.815 166.466C147.762 166.287 147.754 166.097 147.793 165.914C147.906 165.672 148.105 165.479 148.351 165.374C149.514 164.704 150.677 164.036 151.839 163.368C152.047 163.263 152.235 163.125 152.398 162.958C152.761 162.526 152.708 161.879 152.52 161.346C152.333 160.814 152.034 160.313 151.962 159.754C151.748 158.08 153.538 156.878 154.142 155.301C154.347 154.671 154.458 154.014 154.471 153.352C154.521 152.639 154.524 151.816 153.981 151.361C153.457 150.92 152.643 151.02 152.096 150.61C151.595 150.235 151.422 149.511 150.875 149.209C150.378 148.933 149.759 149.109 149.204 148.979C148.232 148.753 147.62 147.631 146.626 147.528C146.067 147.466 145.433 147.742 144.974 147.417C144.568 147.126 144.553 146.548 144.476 146.057C144.34 145.294 143.974 144.591 143.427 144.042C142.88 143.493 142.179 143.125 141.416 142.987C140.839 142.895 140.211 142.929 139.718 142.611C139.221 142.29 138.995 141.689 138.601 141.241C137.974 140.525 136.979 140.268 136.05 140.05C134.788 139.755 133.527 139.459 132.267 139.162C131.598 139.001 130.733 138.916 130.37 139.506C130.262 139.73 130.188 139.969 130.148 140.214C130.011 140.656 129.739 141.044 129.369 141.322C129 141.599 128.552 141.753 128.09 141.761C127.774 141.221 127.262 140.823 126.66 140.651C126.267 140.585 125.878 140.493 125.497 140.375C125.298 140.278 125.121 140.14 124.977 139.972C124.832 139.804 124.724 139.607 124.658 139.396C124.592 139.184 124.57 138.961 124.594 138.74C124.617 138.519 124.685 138.306 124.793 138.112C125.01 137.724 125.093 137.275 125.031 136.834C124.968 136.393 124.762 135.986 124.445 135.673C123.803 135.095 122.873 134.954 122.009 135.011C121.783 134.517 122.162 133.962 122.567 133.602C122.976 133.246 123.47 132.894 123.558 132.357C123.699 131.515 122.624 130.876 121.81 131.125C120.995 131.377 120.475 132.17 120.131 132.951C119.964 133.412 119.736 133.848 119.454 134.249C119.309 134.447 119.112 134.601 118.885 134.695C118.659 134.788 118.41 134.817 118.168 134.777C117.495 134.605 117.239 133.805 117.09 133.131C116.851 132.23 116.73 131.302 116.73 130.37C116.736 129.429 117.109 128.528 117.771 127.858C118.884 126.832 120.597 126.932 122.1 127.097C121.939 126.882 121.862 126.615 121.883 126.347C121.905 126.079 122.022 125.829 122.215 125.642C122.416 125.463 122.658 125.336 122.919 125.272C123.181 125.208 123.454 125.208 123.715 125.274C124.168 125.368 124.576 125.612 124.874 125.967C125.302 126.488 125.424 127.196 125.746 127.786C126.071 128.379 126.797 128.885 127.39 128.567C127.907 128.291 127.987 127.579 127.861 127.008C127.731 126.442 127.459 125.887 127.505 125.305C127.593 124.198 128.744 123.528 129.758 123.072C130.772 122.617 131.931 122 132.091 120.897C132.099 120.683 132.14 120.471 132.214 120.27C132.326 120.09 132.483 119.942 132.669 119.841C135.625 117.884 138.636 115.901 142.017 114.832C142.193 114.775 142.212 114.836 142.392 114.794C142.644 114.649 142.476 114.247 142.235 114.086C141.994 113.925 141.673 113.799 141.611 113.515C141.569 113.308 141.692 113.102 141.722 112.891C141.73 112.764 141.707 112.637 141.655 112.521C141.602 112.405 141.522 112.303 141.421 112.225C141.32 112.147 141.202 112.095 141.076 112.074C140.951 112.053 140.822 112.062 140.701 112.102C140.43 111.742 140.965 111.325 141.401 111.203C142.707 110.845 144.047 110.626 145.398 110.552C145.554 110.526 145.714 110.553 145.853 110.628C145.953 110.724 146.012 110.855 146.018 110.993C146.024 111.131 145.978 111.266 145.888 111.371C145.704 111.576 145.5 111.762 145.28 111.926C145.06 112.14 144.903 112.409 144.827 112.706C144.75 113.002 144.756 113.314 144.844 113.607C145.551 113.967 146.316 114.338 147.1 114.212C147.881 114.086 148.573 113.205 148.206 112.504C147.865 111.85 146.836 111.7 146.66 110.984C146.454 110.146 147.64 109.399 147.372 108.58C147.257 108.22 146.898 108.005 146.622 107.749C146.298 107.429 146.078 107.02 145.99 106.573C145.902 106.126 145.95 105.663 146.129 105.245C145.681 105.323 145.221 105.293 144.787 105.157C144.353 105.021 143.958 104.783 143.635 104.464C143.038 103.862 142.564 102.909 141.715 102.94C140.938 102.963 140.269 103.87 139.542 103.594C139.362 103.526 139.175 103.388 139.003 103.468C138.946 103.505 138.898 103.554 138.863 103.611C138.828 103.669 138.807 103.734 138.8 103.801C138.617 104.686 138.934 105.693 138.452 106.459C137.928 107.289 136.716 107.404 136.081 108.155C135.736 108.561 135.602 109.108 135.285 109.537C134.968 109.966 134.298 110.242 133.916 109.866C134.103 109.482 134.154 109.045 134.061 108.628C133.968 108.21 133.736 107.837 133.403 107.569C133.051 107.337 132.67 107.152 132.271 107.018C131.825 106.829 131.4 106.593 131.005 106.313C130.808 106.193 130.648 106.021 130.542 105.815C130.459 105.557 130.469 105.277 130.573 105.026C130.766 104.473 131.107 103.984 131.558 103.61C132.009 103.236 132.553 102.993 133.132 102.905C133.636 102.836 134.225 102.859 134.562 102.473C134.738 102.27 134.83 101.96 135.09 101.879C135.254 101.845 135.424 101.865 135.576 101.937C136.207 102.159 136.834 102.381 137.465 102.603C137.676 102.699 137.908 102.738 138.138 102.714C138.253 102.699 138.357 102.641 138.43 102.552C138.503 102.464 138.54 102.35 138.532 102.235C138.471 101.921 137.989 101.772 138.035 101.454C138.057 101.35 138.112 101.256 138.192 101.186C138.874 100.46 139.708 99.8932 140.635 99.5272C141.561 99.1611 142.557 99.0045 143.551 99.0686C143.788 99.463 143.413 99.9263 143.096 100.259C142.782 100.596 142.529 101.194 142.912 101.45C143.066 101.531 143.239 101.571 143.413 101.565C143.878 101.628 144.33 101.765 144.752 101.971C145.406 102.254 146.048 102.568 146.676 102.905C146.583 102.495 146.599 102.067 146.722 101.665C146.791 101.467 146.931 101.302 147.115 101.203C147.299 101.103 147.513 101.075 147.716 101.125C148.091 101.27 148.282 101.768 148.684 101.814C149.215 101.875 149.426 101.087 149.204 100.596C148.982 100.106 148.538 99.7004 148.504 99.1606C148.477 98.8006 148.615 98.3526 148.328 98.1344C148.226 98.0667 148.109 98.0247 147.988 98.0119C145.586 97.5715 143.182 97.1299 140.778 96.6871C140.349 96.6066 139.733 96.6679 139.714 97.1006C139.703 97.3456 139.921 97.5869 139.825 97.8089C139.722 98.0463 139.385 98.0272 139.141 98.1114C138.957 98.1949 138.805 98.3362 138.708 98.5137C138.612 98.6913 138.575 98.8955 138.605 99.0955C138.67 99.4936 138.825 99.8718 139.056 100.202C138.586 100.007 137.878 99.9723 137.408 99.7732C137.339 99.2279 137.201 98.6937 136.995 98.1842C136.983 98.1031 136.954 98.0255 136.909 97.957C136.864 97.8885 136.804 97.8307 136.735 97.7876C136.665 97.7446 136.587 97.7173 136.506 97.7078C136.424 97.6982 136.342 97.7066 136.264 97.7324C135.645 97.8281 135.025 97.92 134.405 98.0157C134.25 98.0231 134.101 98.0809 133.981 98.1803C133.74 98.4369 133.977 98.8466 133.969 99.1988C133.947 99.3958 133.864 99.5809 133.731 99.7284C133.599 99.876 133.424 99.9786 133.231 100.022C132.842 100.101 132.44 100.096 132.053 100.007C131.185 99.8727 130.32 99.7387 129.452 99.6047C130.218 99.3602 130.9 98.9036 131.418 98.2876C131.762 97.8817 131.946 97.1235 131.449 96.9321C131.302 96.8917 131.149 96.88 130.997 96.8976C129.819 96.9053 128.89 95.9213 127.788 95.5039C127.442 95.3746 127.075 95.3072 126.706 95.3048L125.474 96.8172Z" fill="#6C63FF"/>
<path d="M225.833 134.471C225.698 134.652 225.521 134.798 225.316 134.895C225.112 134.991 224.888 135.037 224.662 135.026C223.465 134.923 222.96 133.196 221.774 133.001C221.669 132.974 221.558 132.985 221.461 133.031C221.285 133.127 221.254 133.364 221.243 133.564C221.193 134.551 221.151 135.578 221.537 136.489C222.1 137.821 223.557 138.939 223.251 140.352C221.606 139.59 220.749 137.741 220.363 135.968C219.973 134.195 219.912 132.334 219.216 130.657C218.684 131.335 217.575 130.776 217.093 130.064C216.634 129.39 216.351 128.609 215.907 127.924C215.463 127.242 214.782 126.629 213.972 126.591C213.119 126.553 212.377 127.139 211.726 127.694C211.161 128.112 210.686 128.641 210.33 129.248C209.875 130.167 209.994 131.247 209.971 132.269C209.948 133.372 209.714 134.54 208.961 135.352C208.207 136.16 206.819 136.443 205.989 135.712C205.588 135.293 205.302 134.777 205.159 134.214C204.257 131.582 203.506 128.9 202.91 126.181C202.772 126.802 202.225 127.602 201.705 127.238C201.589 127.139 201.495 127.016 201.43 126.878C200.458 125.236 198.664 124.248 196.847 123.654C195.034 123.065 193.126 122.789 191.332 122.138C190.326 121.772 189.365 121.293 188.467 120.71C188.239 121.046 188.106 121.438 188.081 121.843C188.057 122.249 188.143 122.654 188.329 123.015C188.531 123.368 188.843 123.645 189.218 123.802C189.593 123.959 190.009 123.988 190.402 123.884C190.8 123.754 191.137 123.478 191.531 123.34C191.925 123.206 192.456 123.271 192.628 123.654C192.797 124.018 192.544 124.458 192.67 124.841C192.858 125.419 193.734 125.465 194.04 125.994C194.13 126.203 194.15 126.436 194.099 126.657C194.047 126.879 193.926 127.079 193.753 127.227C193.401 127.514 193.012 127.753 192.598 127.939C191.313 128.655 190.398 129.876 189.274 130.826C188.149 131.779 186.562 132.472 185.223 131.864C185.541 130.244 183.617 129.057 183.261 127.445C183.143 126.913 183.204 126.35 183.039 125.833C182.798 125.082 182.133 124.569 181.59 124.003C180.93 123.307 180.416 122.486 180.077 121.589C179.739 120.691 179.583 119.735 179.62 118.776C179.65 118.11 179.773 117.432 179.62 116.781C179.471 116.134 178.931 115.506 178.266 115.533C176.747 115.602 174.831 115.717 174.035 114.419C173.749 113.956 173.626 113.278 174.039 112.922C174.201 112.819 174.381 112.75 174.569 112.718C174.758 112.686 174.951 112.691 175.137 112.734C176.281 112.845 177.42 112.96 178.564 113.071C179.364 113.148 180.228 113.213 180.916 112.795C181.605 112.378 181.903 111.264 181.264 110.77C180.802 110.41 179.968 110.429 179.83 109.859C179.719 109.38 180.247 108.84 179.96 108.438C179.757 108.155 179.298 108.231 179.019 108.446C178.776 108.699 178.511 108.931 178.227 109.139C177.681 109.422 177.03 109.15 176.441 108.966C175.852 108.783 175.064 108.767 174.781 109.315C174.46 109.924 175.06 110.728 174.747 111.34C174.326 112.148 172.911 111.689 172.322 112.386C171.649 113.182 172.781 114.377 172.555 115.395C172.265 115.539 171.942 115.606 171.618 115.588C171.294 115.57 170.98 115.468 170.708 115.292C170.44 115.11 170.227 114.858 170.091 114.564C169.955 114.27 169.901 113.945 169.935 113.622C169.989 113.163 170.23 112.692 170.069 112.259C169.896 111.925 169.61 111.663 169.262 111.52C168.153 110.904 167.043 110.29 165.934 109.679C165.624 110.253 166.014 110.961 166.504 111.394C166.99 111.823 167.602 112.148 167.923 112.715C168.127 113.108 168.173 113.563 168.052 113.989C167.931 114.414 167.652 114.778 167.273 115.005C167.225 115.038 167.17 115.06 167.113 115.07C167.055 115.08 166.996 115.077 166.94 115.062C166.887 115.031 166.841 114.989 166.804 114.94C166.767 114.891 166.741 114.835 166.726 114.775C166.141 113.27 165.257 111.788 163.85 111.003C162.438 110.215 160.415 110.379 159.489 111.7C159.271 112.014 159.122 112.374 158.931 112.707C157.917 114.472 155.737 115.307 153.702 115.254C153.503 115.266 153.305 115.22 153.132 115.12C152.803 114.894 152.818 114.411 152.868 114.013C152.941 113.45 153.01 112.891 153.082 112.328C153.084 111.985 153.217 111.654 153.453 111.405C153.832 111.107 154.375 111.294 154.857 111.287C155.221 111.271 155.571 111.142 155.859 110.92C156.147 110.697 156.36 110.39 156.467 110.042C156.564 109.691 156.564 109.32 156.465 108.969C156.367 108.618 156.174 108.301 155.909 108.051C155.691 107.845 155.396 107.584 155.511 107.305C155.558 107.228 155.621 107.162 155.695 107.111C155.77 107.061 155.855 107.028 155.943 107.014C156.804 106.765 157.718 106.7 158.563 106.401C159.413 106.106 160.235 105.501 160.438 104.624C160.499 104.356 160.526 104.031 160.767 103.897C160.888 103.848 161.018 103.822 161.149 103.82C161.609 103.754 162.028 103.519 162.323 103.159C162.618 102.8 162.768 102.343 162.744 101.879C163.15 101.596 163.72 101.806 164.113 102.109C164.504 102.411 164.852 102.809 165.33 102.94C166.221 103.185 167.082 102.392 168.007 102.388C168.397 102.388 168.799 102.526 169.162 102.392C169.533 102.258 169.755 101.891 170.038 101.619C170.325 101.343 170.822 101.178 171.086 101.473C171.01 100.918 170.937 100.367 170.861 99.8152C171.311 99.9288 171.781 99.9445 172.238 99.8613C172.695 99.7781 173.13 99.5979 173.511 99.3328C172.547 99.0073 171.587 98.6819 170.624 98.3564C170.522 98.3314 170.429 98.2814 170.352 98.2109C170.142 97.985 170.352 97.6327 170.52 97.3762C170.93 96.7597 170.998 95.7451 170.325 95.4387C169.866 95.2281 169.342 95.4809 168.902 95.7259C168.199 96.1165 167.495 96.5108 166.791 96.9014C166.726 97.3034 167.216 97.5332 167.518 97.8012C167.702 97.9647 167.832 98.1802 167.892 98.4193C167.951 98.6584 167.937 98.9099 167.851 99.1407C167.765 99.3716 167.611 99.5709 167.409 99.7125C167.208 99.854 166.968 99.9312 166.722 99.9339C166.861 100.115 166.957 100.325 167.004 100.548C167.051 100.772 167.047 101.003 166.994 101.224C166.523 101.259 166.049 101.293 165.575 101.328C165.496 101.343 165.415 101.343 165.336 101.328C165.257 101.312 165.182 101.281 165.116 101.236C164.963 101.102 164.986 100.864 164.947 100.665C164.884 100.427 164.752 100.214 164.566 100.052C164.381 99.8901 164.151 99.7877 163.907 99.7578C163.42 99.7029 162.926 99.7485 162.457 99.8918C162.253 99.9637 162.03 99.9583 161.83 99.8765C161.716 99.8013 161.631 99.691 161.585 99.5625C161.502 99.2999 161.488 99.0203 161.544 98.7507C161.6 98.481 161.725 98.2305 161.906 98.0233C162.274 97.6149 162.678 97.2419 163.115 96.909C164.105 96.0417 164.832 94.9143 165.215 93.6544C165.995 93.3252 166.802 92.881 167.587 92.5517C168.217 92.2593 168.877 92.0371 169.556 91.8893C170.195 91.7916 170.843 91.7608 171.488 91.7974C172.368 91.8127 173.251 91.828 174.131 91.8472C174.916 91.8141 175.701 91.9271 176.445 92.1803C177.168 92.479 177.807 93.1261 177.857 93.9071C177.872 93.9962 177.864 94.0876 177.833 94.1727C177.803 94.2578 177.752 94.3337 177.684 94.3934C177.583 94.4496 177.467 94.4762 177.352 94.47C176.621 94.493 176.311 94.6768 175.581 94.7036C176.043 95.1975 176.564 95.7182 177.237 95.8063C178.423 95.9595 179.276 94.7304 179.823 93.6621C179.842 93.934 179.967 94.1875 180.171 94.3685C180.374 94.5495 180.641 94.6436 180.913 94.6308C181.206 94.5804 181.485 94.471 181.735 94.3092C184.088 93.0221 186.723 92.3405 189.404 92.3258C189.378 92.1226 189.428 91.9169 189.544 91.7485C189.661 91.5801 189.836 91.4611 190.035 91.4145C190.582 91.3073 191.072 91.7782 191.336 92.2684C191.596 92.7585 191.76 93.3251 192.181 93.6927C192.598 94.0603 193.405 94.0412 193.569 93.5128C193.73 93.0035 193.198 92.567 192.758 92.2645C192.315 91.9659 191.852 91.4107 192.15 90.9665C194.399 90.4649 196.668 89.9671 198.974 89.8676C199.366 89.8795 199.756 89.8118 200.121 89.6685C200.302 89.5919 200.453 89.4576 200.55 89.2866C200.646 89.1156 200.684 88.9174 200.657 88.7228C200.154 88.8403 199.627 88.8056 199.143 88.6229C198.66 88.4402 198.241 88.1178 197.941 87.6966C200.309 87.5013 202.787 87.329 205.063 87.8612L207.056 89.5536C206.677 89.948 206.172 90.3194 206.448 90.7138C206.539 90.8044 206.649 90.8731 206.77 90.9149C206.891 90.9567 207.021 90.9704 207.148 90.955C207.63 90.9627 208.112 90.9742 208.59 90.9742C218.483 100.447 224.573 113.217 225.71 126.874C224.907 126.844 224.169 127.862 224.272 128.751C224.394 129.781 225.137 130.608 225.668 131.496C225.756 131.64 225.835 131.79 225.905 131.944L225.833 134.471Z" fill="#6C63FF"/>
<path d="M0 209.671H292" stroke="#3F3D56" stroke-width="2" stroke-miterlimit="10"/>
<path d="M120.467 26.3422C123.147 26.3422 125.319 24.1676 125.319 21.4851C125.319 18.8025 123.147 16.6279 120.467 16.6279C117.788 16.6279 115.615 18.8025 115.615 21.4851C115.615 24.1676 117.788 26.3422 120.467 26.3422Z" stroke="#3F3D56" stroke-width="2" stroke-miterlimit="10"/>
<path d="M263.836 118.84C266.516 118.84 268.688 116.665 268.688 113.983C268.688 111.3 266.516 109.126 263.836 109.126C261.157 109.126 258.984 111.3 258.984 113.983C258.984 116.665 261.157 118.84 263.836 118.84Z" stroke="#3F3D56" stroke-width="2" stroke-miterlimit="10"/>
<path d="M230.713 70.4513C233.392 70.4513 235.565 68.2767 235.565 65.5942C235.565 62.9117 233.392 60.7371 230.713 60.7371C228.033 60.7371 225.861 62.9117 225.861 65.5942C225.861 68.2767 228.033 70.4513 230.713 70.4513Z" stroke="#3F3D56" stroke-width="2" stroke-miterlimit="10"/>
<path d="M198.878 112.077C201.885 112.077 204.323 109.637 204.323 106.626C204.323 103.616 201.885 101.176 198.878 101.176C195.871 101.176 193.433 103.616 193.433 106.626C193.433 109.637 195.871 112.077 198.878 112.077Z" fill="#3F3D56"/>
<path d="M216.369 96.2914C220.333 96.2914 223.547 93.0745 223.547 89.1063C223.547 85.138 220.333 81.9211 216.369 81.9211C212.405 81.9211 209.191 85.138 209.191 89.1063C209.191 93.0745 212.405 96.2914 216.369 96.2914Z" fill="white"/>
<path d="M223.628 81.6576C221.701 79.7763 219.107 78.7382 216.416 78.7715C213.725 78.8049 211.157 79.9071 209.278 81.8356C205.364 85.8514 199.777 106.132 199.777 106.132C199.777 106.132 219.892 100.038 223.805 96.0225C225.685 94.094 226.722 91.4972 226.689 88.8032C226.655 86.1093 225.554 83.5389 223.628 81.6576ZM213.085 92.4761C212.419 91.8259 211.961 90.9927 211.768 90.0819C211.576 89.171 211.657 88.2234 212.002 87.3589C212.348 86.4944 212.941 85.7517 213.708 85.2249C214.475 84.6981 215.381 84.4108 216.311 84.3992C217.241 84.3877 218.153 84.6525 218.933 85.1601C219.713 85.6678 220.324 86.3955 220.691 87.2512C221.057 88.1069 221.162 89.0522 220.992 89.9675C220.822 90.8829 220.384 91.7272 219.735 92.3936C218.864 93.2873 217.674 93.7981 216.427 93.8135C215.18 93.829 213.978 93.3479 213.085 92.4761Z" fill="#57B894"/>
</g>
<defs>
<clipPath id="clip0">
<rect width="292" height="210" fill="white"/>
</clipPath>
</defs>
</svg>
